<?xml version="1.0" encoding="UTF-8" standalone="no"?><!DOCTYPE svg PUBLIC "-//W3C//DTD SVG 1.1//EN" "http://www.w3.org/Graphics/SVG/1.1/DTD/svg11.dtd"><svg width="100%" height="100%" viewBox="0 0 1134 1134" version="1.1" xmlns="http://www.w3.org/2000/svg" xmlns:xlink="http://www.w3.org/1999/xlink" xml:space="preserve" xmlns:serif="http://www.serif.com/" style="fill-rule:evenodd;clip-rule:evenodd;stroke-linejoin:round;stroke-miterlimit:2;"><g><path d="M868.973,228.65c-75.222,-67.226 -172.99,-109.729 -280.571,-114.748c-259.501,-12.108 -475.017,198.949 -475.017,458.731l0,275.861c0,62.428 -50.601,113.044 -113.029,113.044c-0.207,0 -0.354,-0.162 -0.354,-0.354l0,-388.403c0,-327.156 267.622,-587.721 594.41,-572.114c159.392,7.604 301.524,81.047 399.831,193.722l0.427,0.496c86.363,99.209 138.794,228.73 139.164,370.493c0.842,312.671 -259.989,568.482 -572.645,568.482l-561.187,-0.015c0,-62.62 50.763,-113.383 113.383,-113.383l448.498,0c251.823,0 460.901,-206.036 458.553,-457.845c-1.239,-132.525 -59.331,-251.442 -151.04,-333.59l-0.422,-0.376Z"/></g><g><path d="M321.789,628.903c-16.894,0 -31.308,-6.06 -43.244,-18.179c-11.936,-12.119 -17.904,-26.626 -17.904,-43.519c0,-16.894 5.968,-31.492 17.904,-43.795c11.936,-12.303 26.35,-18.454 43.244,-18.454c17.261,0 31.951,6.151 44.07,18.454c12.119,12.303 18.179,26.901 18.179,43.795c0,16.894 -6.06,31.4 -18.179,43.519c-12.119,12.119 -26.809,18.179 -44.07,18.179Z" style="fill-rule:nonzero;"/><path d="M566.378,628.903c-16.894,0 -31.308,-6.06 -43.244,-18.179c-11.936,-12.119 -17.904,-26.626 -17.904,-43.519c0,-16.894 5.968,-31.492 17.904,-43.795c11.936,-12.303 26.35,-18.454 43.244,-18.454c17.261,0 31.951,6.151 44.07,18.454c12.119,12.303 18.179,26.901 18.179,43.795c0,16.894 -6.06,31.4 -18.179,43.519c-12.119,12.119 -26.809,18.179 -44.07,18.179Z" style="fill-rule:nonzero;"/><path d="M810.968,628.903c-16.894,0 -31.308,-6.06 -43.244,-18.179c-11.936,-12.119 -17.904,-26.626 -17.904,-43.519c0,-16.894 5.968,-31.492 17.904,-43.795c11.936,-12.303 26.35,-18.454 43.244,-18.454c17.261,0 31.951,6.151 44.07,18.454c12.119,12.303 18.179,26.901 18.179,43.795c0,16.894 -6.06,31.4 -18.179,43.519c-12.119,12.119 -26.809,18.179 -44.07,18.179Z" style="fill-rule:nonzero;"/></g></svg>